<svg width="1512" height="286" viewBox="0 0 1512 286" fill="none" xmlns="http://www.w3.org/2000/svg">
<g clip-path="url(#clip0_157_549)">
<path d="M122 169.623L796 124L1531 289.445H1L122 169.623Z" fill="#C17F1C"/>
<rect x="214.5" y="104.5" width="25" height="145" fill="#D9D9D9" stroke="black"/>
<path d="M310.5 88C310.5 111.98 289.057 131.5 262.5 131.5C235.943 131.5 214.5 111.98 214.5 88C214.5 64.0203 235.943 44.5 262.5 44.5C289.057 44.5 310.5 64.0203 310.5 88Z" fill="#D9D9D9" stroke="black"/>
<path d="M239.5 110C239.5 133.98 218.057 153.5 191.5 153.5C164.943 153.5 143.5 133.98 143.5 110C143.5 86.0203 164.943 66.5 191.5 66.5C218.057 66.5 239.5 86.0203 239.5 110Z" fill="#D9D9D9" stroke="black"/>
<path d="M261.5 44C261.5 67.9797 240.057 87.5 213.5 87.5C186.943 87.5 165.5 67.9797 165.5 44C165.5 20.0203 186.943 0.5 213.5 0.5C240.057 0.5 261.5 20.0203 261.5 44Z" fill="#D9D9D9" stroke="black"/>
<rect x="382.531" y="132.348" width="243" height="50" transform="rotate(-3.73194 382.531 132.348)" fill="#D9D9D9" stroke="black"/>
<rect x="390.5" y="188.5" width="8" height="21" fill="#D9D9D9" stroke="black"/>
<rect x="608.5" y="183.5" width="8" height="21" fill="#D9D9D9" stroke="black"/>
<path d="M375.393 198.471L386.294 179.986L628.794 167.537L621.136 190.512L375.393 198.471Z" fill="#D9D9D9" stroke="black"/>
<path d="M398.5 149L611 136M395.5 168L603.5 154" stroke="black"/>
<path d="M1078 6.4828L1093.25 49.046L1093.36 49.3774H1093.72H1142.91L1103.15 75.5777L1102.83 75.7939L1102.96 76.1638L1118.17 118.63L1078.28 92.3374L1078 92.156L1077.72 92.3374L1037.83 118.63L1053.04 76.1638L1053.17 75.7939L1052.85 75.5777L1013.09 49.3774H1062.28H1062.64L1062.75 49.046L1078 6.4828Z" fill="#D9D9D9" stroke="black"/>
<path d="M861.5 219.5C861.5 226.524 855.738 233.02 846.108 237.79C836.509 242.545 823.213 245.5 808.5 245.5C793.787 245.5 780.491 242.545 770.892 237.79C761.262 233.02 755.5 226.524 755.5 219.5C755.5 212.476 761.262 205.98 770.892 201.21C780.491 196.455 793.787 193.5 808.5 193.5C823.213 193.5 836.509 196.455 846.108 201.21C855.738 205.98 861.5 212.476 861.5 219.5Z" fill="#D9D9D9" stroke="black"/>
<path d="M777.5 201.5C777.5 208.352 773.853 214.591 767.885 219.133C761.918 223.676 753.651 226.5 744.5 226.5C735.349 226.5 727.082 223.676 721.115 219.133C715.147 214.591 711.5 208.352 711.5 201.5C711.5 194.648 715.147 188.409 721.115 183.867C727.082 179.324 735.349 176.5 744.5 176.5C753.651 176.5 761.918 179.324 767.885 183.867C773.853 188.409 777.5 194.648 777.5 201.5Z" fill="#D9D9D9" stroke="black"/>
<path d="M753.967 184.5L761 168.258L768.033 184.5H753.967Z" fill="#D9D9D9" stroke="black"/>
<path d="M715.967 184.5L723 168.258L730.033 184.5H715.967Z" fill="#D9D9D9" stroke="black"/>
<line x1="770.413" y1="234.282" x2="757.413" y2="253.282" stroke="black"/>
<line x1="771.469" y1="235.827" x2="778.469" y2="254.827" stroke="black"/>
<line x1="844.469" y1="232.173" x2="837.469" y2="251.173" stroke="black"/>
<line x1="846.447" y1="230.776" x2="856.447" y2="250.776" stroke="black"/>
<line x1="856.703" y1="219.598" x2="898.703" y2="188.598" stroke="black"/>
<path d="M734.5 195.5C734.5 196.236 734.03 196.974 733.121 197.553C732.217 198.128 730.938 198.5 729.5 198.5C728.062 198.5 726.783 198.128 725.879 197.553C724.97 196.974 724.5 196.236 724.5 195.5C724.5 194.764 724.97 194.026 725.879 193.447C726.783 192.872 728.062 192.5 729.5 192.5C730.938 192.5 732.217 192.872 733.121 193.447C734.03 194.026 734.5 194.764 734.5 195.5Z" fill="black" stroke="black"/>
<path d="M758.5 195.5C758.5 196.236 758.03 196.974 757.121 197.553C756.217 198.128 754.938 198.5 753.5 198.5C752.062 198.5 750.783 198.128 749.879 197.553C748.97 196.974 748.5 196.236 748.5 195.5C748.5 194.764 748.97 194.026 749.879 193.447C750.783 192.872 752.062 192.5 753.5 192.5C754.938 192.5 756.217 192.872 757.121 193.447C758.03 194.026 758.5 194.764 758.5 195.5Z" fill="black" stroke="black"/>
<ellipse cx="740" cy="208" rx="3" ry="1" fill="black"/>
<path d="M733 209C734 211.833 736.8 215.8 740 209C741 211.833 743.6 215.8 746 209" stroke="black"/>
<ellipse cx="727.5" cy="194" rx="1.5" ry="1" fill="#D9D9D9"/>
<ellipse cx="751.5" cy="195" rx="1.5" ry="1" fill="#D9D9D9"/>
<line x1="763.793" y1="199.545" x2="785.793" y2="189.545" stroke="black"/>
<line x1="764.06" y1="201.504" x2="789.06" y2="204.504" stroke="black"/>
<line x1="766.431" y1="205.746" x2="776.431" y2="222.746" stroke="black"/>
<line x1="716.856" y1="193.479" x2="696.856" y2="187.479" stroke="black"/>
<line x1="715.976" y1="199.499" x2="694.976" y2="198.499" stroke="black"/>
<line x1="717.234" y1="206.442" x2="700.234" y2="215.442" stroke="black"/>
<path d="M1122.09 232.359L1125.05 232.34C1124.92 234.306 1124.26 235.836 1123.06 236.93C1121.88 238.023 1120.3 238.544 1118.32 238.492C1116.91 238.453 1115.76 238.076 1114.86 237.359C1113.96 236.643 1113.31 235.719 1112.91 234.586C1112.52 233.44 1112.37 232.223 1112.46 230.934L1112.69 228.609C1112.83 227.242 1113.21 225.979 1113.8 224.82C1114.42 223.661 1115.25 222.737 1116.3 222.047C1117.36 221.344 1118.63 221.005 1120.11 221.031C1122.01 221.07 1123.48 221.643 1124.51 222.75C1125.55 223.844 1126.06 225.335 1126.03 227.223L1123.06 227.184C1123.13 226.129 1122.95 225.283 1122.54 224.645C1122.13 224.007 1121.36 223.674 1120.21 223.648C1119.27 223.635 1118.49 223.87 1117.87 224.352C1117.24 224.833 1116.75 225.458 1116.4 226.227C1116.05 226.982 1115.82 227.77 1115.7 228.59L1115.43 230.953C1115.35 231.656 1115.36 232.379 1115.46 233.121C1115.57 233.863 1115.83 234.495 1116.25 235.016C1116.66 235.536 1117.31 235.816 1118.18 235.855C1119.36 235.908 1120.26 235.615 1120.88 234.977C1121.5 234.339 1121.9 233.466 1122.09 232.359ZM1108.38 229.898C1108.17 231.383 1108.21 232.835 1108.51 234.254C1108.81 235.673 1109.35 236.956 1110.11 238.102C1110.88 239.247 1111.86 240.172 1113.06 240.875C1114.27 241.565 1115.69 241.923 1117.32 241.949C1119.01 241.988 1120.61 241.676 1122.11 241.012C1123.62 240.348 1124.96 239.436 1126.15 238.277C1127.35 237.105 1128.32 235.777 1129.08 234.293C1129.85 232.796 1130.34 231.24 1130.56 229.625C1130.77 228.141 1130.73 226.695 1130.43 225.289C1130.13 223.87 1129.59 222.587 1128.82 221.441C1128.06 220.296 1127.07 219.378 1125.86 218.688C1124.66 217.997 1123.25 217.639 1121.64 217.613C1119.93 217.574 1118.32 217.887 1116.81 218.551C1115.32 219.202 1113.97 220.113 1112.79 221.285C1111.6 222.444 1110.63 223.766 1109.86 225.25C1109.09 226.734 1108.6 228.284 1108.38 229.898ZM1106.01 229.898C1106.22 227.958 1106.75 226.103 1107.61 224.332C1108.47 222.548 1109.59 220.966 1110.97 219.586C1112.35 218.193 1113.93 217.099 1115.7 216.305C1117.47 215.51 1119.37 215.133 1121.4 215.172C1123.34 215.198 1125.07 215.621 1126.58 216.441C1128.09 217.262 1129.35 218.355 1130.37 219.723C1131.38 221.09 1132.11 222.633 1132.55 224.352C1133 226.057 1133.13 227.822 1132.95 229.645C1132.74 231.572 1132.2 233.427 1131.34 235.211C1130.48 236.982 1129.36 238.564 1127.98 239.957C1126.6 241.35 1125.02 242.451 1123.24 243.258C1121.47 244.052 1119.57 244.43 1117.55 244.391C1115.6 244.365 1113.87 243.941 1112.36 243.121C1110.85 242.301 1109.59 241.207 1108.57 239.84C1107.57 238.46 1106.85 236.91 1106.4 235.191C1105.96 233.473 1105.83 231.708 1106.01 229.898ZM1160.86 238.922L1160.05 244H1143.41L1144.12 239.469L1152.81 230.074C1153.29 229.514 1153.78 228.896 1154.27 228.219C1154.77 227.529 1155.2 226.812 1155.58 226.07C1155.97 225.315 1156.21 224.56 1156.3 223.805C1156.37 223.401 1156.42 222.919 1156.46 222.359C1156.5 221.786 1156.43 221.285 1156.25 220.855C1156.08 220.413 1155.68 220.185 1155.05 220.172C1154.34 220.133 1153.79 220.387 1153.41 220.934C1153.05 221.48 1152.8 222.118 1152.65 222.848C1152.52 223.564 1152.43 224.176 1152.38 224.684L1146.13 224.723C1146.21 223.017 1146.66 221.435 1147.5 219.977C1148.34 218.505 1149.46 217.327 1150.86 216.441C1152.25 215.543 1153.84 215.107 1155.64 215.133C1157.27 215.159 1158.64 215.517 1159.74 216.207C1160.86 216.897 1161.69 217.848 1162.22 219.059C1162.76 220.27 1162.96 221.676 1162.83 223.277C1162.71 224.475 1162.42 225.595 1161.95 226.637C1161.48 227.678 1160.89 228.655 1160.19 229.566C1159.49 230.478 1158.73 231.357 1157.93 232.203C1157.12 233.049 1156.34 233.883 1155.58 234.703L1152.54 238.883L1160.86 238.922ZM1182.54 227.184L1181.75 232.359C1181.57 233.714 1181.25 235.107 1180.78 236.539C1180.32 237.958 1179.7 239.273 1178.92 240.484C1178.14 241.682 1177.17 242.646 1176.01 243.375C1174.85 244.091 1173.45 244.43 1171.79 244.391C1170.54 244.365 1169.49 244.091 1168.65 243.57C1167.8 243.049 1167.12 242.372 1166.6 241.539C1166.08 240.693 1165.69 239.749 1165.43 238.707C1165.18 237.652 1165.04 236.585 1165.02 235.504C1164.99 234.41 1165.04 233.368 1165.15 232.379L1165.93 227.184C1166.14 225.829 1166.47 224.443 1166.91 223.023C1167.37 221.591 1167.98 220.27 1168.77 219.059C1169.56 217.848 1170.54 216.891 1171.7 216.188C1172.87 215.471 1174.28 215.133 1175.93 215.172C1177.17 215.198 1178.21 215.478 1179.06 216.012C1179.92 216.533 1180.6 217.216 1181.11 218.062C1181.63 218.896 1182.01 219.833 1182.26 220.875C1182.51 221.904 1182.65 222.965 1182.67 224.059C1182.7 225.152 1182.65 226.194 1182.54 227.184ZM1175.43 233.199L1176.42 226.324C1176.45 226.103 1176.5 225.764 1176.58 225.309C1176.66 224.853 1176.72 224.339 1176.77 223.766C1176.83 223.193 1176.83 222.646 1176.77 222.125C1176.73 221.591 1176.61 221.148 1176.4 220.797C1176.21 220.432 1175.89 220.237 1175.45 220.211C1174.78 220.159 1174.25 220.367 1173.84 220.836C1173.45 221.292 1173.15 221.871 1172.95 222.574C1172.74 223.277 1172.59 223.98 1172.5 224.684C1172.42 225.387 1172.35 225.934 1172.3 226.324L1171.29 233.199C1171.27 233.421 1171.23 233.766 1171.15 234.234C1171.07 234.69 1171.01 235.204 1170.95 235.777C1170.9 236.35 1170.89 236.904 1170.93 237.438C1170.97 237.958 1171.09 238.401 1171.29 238.766C1171.49 239.117 1171.82 239.312 1172.26 239.352C1172.93 239.404 1173.45 239.195 1173.84 238.727C1174.25 238.258 1174.55 237.672 1174.76 236.969C1174.97 236.266 1175.12 235.562 1175.21 234.859C1175.3 234.156 1175.37 233.603 1175.43 233.199ZM1200.54 238.922L1199.74 244H1183.1L1183.8 239.469L1192.5 230.074C1192.98 229.514 1193.47 228.896 1193.96 228.219C1194.46 227.529 1194.89 226.812 1195.27 226.07C1195.66 225.315 1195.9 224.56 1195.99 223.805C1196.06 223.401 1196.11 222.919 1196.15 222.359C1196.19 221.786 1196.12 221.285 1195.93 220.855C1195.76 220.413 1195.37 220.185 1194.74 220.172C1194.03 220.133 1193.48 220.387 1193.1 220.934C1192.74 221.48 1192.48 222.118 1192.34 222.848C1192.21 223.564 1192.12 224.176 1192.07 224.684L1185.82 224.723C1185.89 223.017 1186.35 221.435 1187.18 219.977C1188.03 218.505 1189.15 217.327 1190.54 216.441C1191.94 215.543 1193.53 215.107 1195.33 215.133C1196.96 215.159 1198.32 215.517 1199.43 216.207C1200.55 216.897 1201.38 217.848 1201.91 219.059C1202.44 220.27 1202.65 221.676 1202.52 223.277C1202.4 224.475 1202.11 225.595 1201.64 226.637C1201.17 227.678 1200.58 228.655 1199.88 229.566C1199.18 230.478 1198.42 231.357 1197.61 232.203C1196.81 233.049 1196.02 233.883 1195.27 234.703L1192.22 238.883L1200.54 238.922ZM1221.52 232.887L1220.64 237.965H1203.84L1204.2 233.629L1216.13 215.562H1221.38L1214.51 225.016L1210.25 232.848L1221.52 232.887ZM1222.52 215.562L1217.57 244H1211.3L1216.23 215.562H1222.52ZM1237.95 241.129L1246.3 215.562H1249.29L1251.15 218.062L1242.38 244H1238.96L1237.95 241.129ZM1241.77 215.562L1241.44 241.91L1239.78 244H1235.64L1235.43 215.562H1241.77ZM1248.82 241.188L1256.48 215.562H1263.02L1253.88 244H1249.98L1248.82 241.188ZM1251.81 215.562L1252.36 241.793L1250.76 244H1247.18L1246.36 217.496L1248.55 215.562H1251.81ZM1272.61 215.562L1267.69 244H1261.17L1266.11 215.562H1272.61ZM1288.51 238.727L1287.59 244H1275.95L1276.89 238.727H1288.51ZM1283.2 215.562L1278.26 244H1271.77L1276.68 215.562H1283.2ZM1307.11 238.727L1306.19 244H1294.55L1295.48 238.727H1307.11ZM1301.79 215.562L1296.85 244H1290.37L1295.27 215.562H1301.79ZM1320.7 215.562L1315.78 244H1309.25L1314.2 215.562H1320.7ZM1334.49 221.852L1325.6 244H1318.41L1331.85 215.562H1336.38L1334.49 221.852ZM1334.72 244L1333.47 221.188L1333.63 215.562H1337.95L1341.54 244H1334.72ZM1336.73 233.395L1335.8 238.688H1323.8L1324.74 233.395H1336.73ZM1351.99 215.562H1357.09L1357.96 235.289L1365.72 215.562H1371.17L1358.82 244H1354.51L1351.99 215.562ZM1348.65 215.562H1354.12L1351.32 237.652L1350.23 244H1343.73L1348.65 215.562ZM1368.82 215.562H1374.33L1369.41 244H1362.85L1364.08 237.086L1368.82 215.562ZM1401.09 238.727L1400.17 244H1383.24L1384.18 238.727H1401.09ZM1404.43 219.391L1386.7 244H1381.77L1382.48 240.094L1400.35 215.562H1405.09L1404.43 219.391ZM1403 215.562L1402.09 220.855H1385.56L1386.5 215.562H1403ZM1421.6 226.852L1420.68 232.125H1409.45L1410.37 226.852H1421.6ZM1414.49 215.562L1409.55 244H1403.06L1407.96 215.562H1414.49ZM1427.93 215.562L1422.98 244H1416.48L1421.4 215.562H1427.93ZM1441.36 221.852L1432.48 244H1425.29L1438.73 215.562H1443.26L1441.36 221.852ZM1441.6 244L1440.35 221.188L1440.5 215.562H1444.82L1448.41 244H1441.6ZM1443.61 233.395L1442.67 238.688H1430.68L1431.62 233.395H1443.61ZM1473.02 227.535L1472.36 231.832C1472.12 233.486 1471.71 235.074 1471.11 236.598C1470.52 238.108 1469.74 239.456 1468.77 240.641C1467.79 241.826 1466.6 242.763 1465.19 243.453C1463.8 244.13 1462.19 244.443 1460.37 244.391C1458.62 244.352 1457.16 243.974 1455.99 243.258C1454.82 242.542 1453.9 241.598 1453.24 240.426C1452.57 239.241 1452.14 237.919 1451.93 236.461C1451.72 234.99 1451.71 233.486 1451.89 231.949L1452.54 227.633C1452.77 226.018 1453.18 224.456 1453.77 222.945C1454.36 221.435 1455.16 220.087 1456.15 218.902C1457.14 217.704 1458.33 216.773 1459.72 216.109C1461.13 215.432 1462.74 215.12 1464.57 215.172C1466.29 215.198 1467.72 215.569 1468.88 216.285C1470.05 217.001 1470.97 217.945 1471.64 219.117C1472.31 220.289 1472.76 221.611 1472.96 223.082C1473.19 224.54 1473.21 226.025 1473.02 227.535ZM1465.76 231.949L1466.42 227.574C1466.49 227.014 1466.56 226.35 1466.64 225.582C1466.71 224.801 1466.71 224.033 1466.64 223.277C1466.56 222.522 1466.33 221.884 1465.95 221.363C1465.58 220.842 1464.97 220.562 1464.14 220.523C1463.15 220.458 1462.35 220.654 1461.75 221.109C1461.15 221.552 1460.68 222.145 1460.33 222.887C1459.99 223.616 1459.74 224.404 1459.57 225.25C1459.4 226.083 1459.26 226.871 1459.16 227.613L1458.51 231.969C1458.45 232.529 1458.37 233.199 1458.28 233.98C1458.2 234.749 1458.19 235.517 1458.26 236.285C1458.32 237.053 1458.54 237.698 1458.92 238.219C1459.31 238.74 1459.93 239.02 1460.78 239.059C1461.73 239.111 1462.5 238.909 1463.1 238.453C1463.71 237.997 1464.2 237.398 1464.55 236.656C1464.91 235.914 1465.18 235.126 1465.35 234.293C1465.53 233.447 1465.67 232.665 1465.76 231.949Z" fill="white"/>
</g>
<defs>
<clipPath id="clip0_157_549">
<rect width="1512" height="286" fill="white"/>
</clipPath>
</defs>
</svg>
