<svg width="473" height="264" viewBox="0 0 473 264" fill="none" xmlns="http://www.w3.org/2000/svg">
<path d="M22.0781 101.525L49.6641 17.1562H59.5254L65.6484 25.4062L36.709 111H25.4297L22.0781 101.525ZM34.7109 17.1562L33.6152 104.104L28.1367 111H14.4727L13.7637 17.1562H34.7109ZM57.9785 101.719L83.2441 17.1562H104.836L74.6719 111H61.7812L57.9785 101.719ZM67.8398 17.1562L69.6445 103.717L64.3594 111H52.5645L49.8574 23.5371L57.0762 17.1562H67.8398ZM136.482 17.1562L120.24 111H98.7129L115.02 17.1562H136.482ZM188.947 93.5977L185.918 111H147.504L150.598 93.5977H188.947ZM171.416 17.1562L155.109 111H133.711L149.889 17.1562H171.416ZM250.307 93.5977L247.277 111H208.863L211.957 93.5977H250.307ZM232.775 17.1562L216.469 111H195.07L211.248 17.1562H232.775ZM295.166 17.1562L278.924 111H257.396L273.703 17.1562H295.166ZM340.67 37.9102L311.344 111H287.625L331.969 17.1562H346.922L340.67 37.9102ZM341.443 111L337.318 35.7188L337.834 17.1562H352.078L363.938 111H341.443ZM348.082 76.002L344.988 93.4688H305.414L308.508 76.002H348.082ZM398.42 17.1562H415.242L418.143 82.2539L443.73 17.1562H461.713L420.979 111H406.734L398.42 17.1562ZM387.398 17.1562H405.445L396.229 90.0527L392.619 111H371.156L387.398 17.1562ZM453.979 17.1562H472.154L455.912 111H434.256L438.316 88.1836L453.979 17.1562ZM64.4238 225.598L61.3945 243H5.51367L8.60742 225.598H64.4238ZM75.4453 161.789L16.9219 243H0.679688L3 230.109L61.9746 149.156H77.6367L75.4453 161.789ZM70.7402 149.156L67.7109 166.623H13.1836L16.2773 149.156H70.7402ZM132.1 186.41L129.07 203.812H92.0098L95.0391 186.41H132.1ZM108.639 149.156L92.332 243H70.9336L87.1113 149.156H108.639ZM152.982 149.156L136.676 243H115.213L131.455 149.156H152.982ZM197.326 169.91L168 243H144.281L188.625 149.156H203.578L197.326 169.91ZM198.1 243L193.975 167.719L194.49 149.156H208.734L220.594 243H198.1ZM204.738 208.002L201.645 225.469H162.07L165.164 208.002H204.738ZM301.805 188.666L299.613 202.846C298.84 208.303 297.465 213.545 295.488 218.572C293.555 223.557 290.977 228.004 287.754 231.914C284.531 235.824 280.6 238.918 275.959 241.195C271.361 243.43 266.055 244.461 260.039 244.289C254.281 244.16 249.469 242.914 245.602 240.551C241.734 238.188 238.705 235.072 236.514 231.205C234.322 227.295 232.883 222.934 232.195 218.121C231.508 213.266 231.465 208.303 232.066 203.232L234.193 188.988C234.967 183.66 236.32 178.504 238.254 173.52C240.23 168.535 242.852 164.088 246.117 160.178C249.383 156.225 253.314 153.152 257.912 150.961C262.553 148.727 267.881 147.695 273.896 147.867C279.568 147.953 284.316 149.178 288.141 151.541C292.008 153.904 295.037 157.02 297.229 160.887C299.463 164.754 300.924 169.115 301.611 173.971C302.342 178.783 302.406 183.682 301.805 188.666ZM277.828 203.232L280.02 188.795C280.234 186.947 280.471 184.756 280.729 182.221C280.986 179.643 280.986 177.107 280.729 174.615C280.471 172.123 279.719 170.018 278.473 168.299C277.227 166.58 275.229 165.656 272.479 165.527C269.213 165.312 266.592 165.957 264.615 167.461C262.639 168.922 261.07 170.877 259.91 173.326C258.793 175.732 257.955 178.332 257.396 181.125C256.838 183.875 256.387 186.475 256.043 188.924L253.916 203.297C253.701 205.145 253.443 207.357 253.143 209.936C252.885 212.471 252.863 215.006 253.078 217.541C253.293 220.076 254.023 222.203 255.27 223.922C256.559 225.641 258.6 226.564 261.393 226.693C264.529 226.865 267.086 226.199 269.062 224.695C271.082 223.191 272.672 221.215 273.832 218.766C275.035 216.316 275.916 213.717 276.475 210.967C277.076 208.174 277.527 205.596 277.828 203.232Z" fill="white"/>
<rect x="14" y="111" width="448" height="18" fill="#C17F1C"/>
<path d="M0 240H304V258H0V240Z" fill="#C17F1C"/>
</svg>
